<svg width="960" height="576" viewBox="0 0 720 432" xmlns="http://www.w3.org/2000/svg" xmlns:xlink="http://www.w3.org/1999/xlink" stroke-linejoin="round" overflow="hidden"><defs></defs><defs><clipPath id="p87048a8cb5"><rect x="90" y="51.84" width="558" height="332.64"/></clipPath></defs><g id="figure_1"><g id="patch_1"><path d="M0 432 720 432 720 0 0 0Z" fill="#FFFFFF"/></g><g id="axes_1"><g id="patch_2"><path d="M90 384.48 648 384.48 648 51.84 90 51.84Z" fill="#FFFFFF"/></g><g id="matplotlib.axis_1"><g id="xtick_1"><g id="line2d_1"><defs><path d="M0 0 0 3.5" id="m3ca9d1f953" stroke="#000000" stroke-width="0.8"/></defs><g><use x="115.364" y="384.48" width="100%" height="100%" xlink:href="#m3ca9d1f953" stroke="#000000" stroke-width="0.8"></use></g></g><g id="text_1"><g transform="matrix(0.1 0 0 -0.1 112.182 399.078)"><defs><path d="M2034 4250C1709.33 4250 1465 4090 1301 3770 1137.67 3450.67 1056 2970 1056 2328 1056 1688.67 1137.67 1209 1301 889 1465 569 1709.33 409 2034 409 2361.33 409 2606.67 569 2770 889 2934 1209 3016 1688.67 3016 2328 3016 2970 2934 3450.67 2770 3770 2606.67 4090 2361.33 4250 2034 4250ZM2034 4750C2557.33 4750 2957 4543 3233 4129 3509 3715.67 3647 3115.33 3647 2328 3647 1542.67 3509 943 3233 529 2957 115.667 2557.33-91 2034-91 1511.33-91 1112 115.667 836 529 560 943 422 1542.67 422 2328 422 3115.33 560 3715.67 836 4129 1112 4543 1511.33 4750 2034 4750Z" id="DejaVuSans-30" transform="scale(0.015625 0.015625)"/></defs><use width="100%" height="100%" xlink:href="#DejaVuSans-30"></use></g></g></g><g id="xtick_2"><g id="line2d_2"><g><use x="179.091" y="384.48" width="100%" height="100%" xlink:href="#m3ca9d1f953" stroke="#000000" stroke-width="0.8"></use></g></g><g id="text_2"><g transform="matrix(0.1 0 0 -0.1 172.729 399.078)"><defs><path d="M1228 531 3431 531 3431 0 469 0 469 531C708.333 779 1034.67 1111.67 1448 1529 1862 1947 2122 2216.67 2228 2338 2430 2564.67 2571 2756.67 2651 2914 2731.67 3071.33 2772 3226 2772 3378 2772 3626 2685 3828 2511 3984 2337 4140.67 2110.33 4219 1831 4219 1633 4219 1424 4184.67 1204 4116 984.667 4047.33 750 3943 500 3803L500 4441C754 4543 991.333 4620 1212 4672 1433.33 4724 1635.67 4750 1819 4750 2302.33 4750 2687.67 4629 2975 4387 3262.33 4145.67 3406 3823 3406 3419 3406 3227 3370 3045 3298 2873 3226.67 2701.67 3096 2499.33 2906 2266 2854 2205.33 2688.33 2030.67 2409 1742 2130.33 1453.33 1736.67 1049.67 1228 531Z" id="DejaVuSans-32" transform="scale(0.015625 0.015625)"/><path d="M691 4666 3169 4666 3169 4134 1269 4134 1269 2991C1360.33 3022.33 1451.67 3045.67 1543 3061 1635 3076.33 1727 3084 1819 3084 2339.67 3084 2752 2941.33 3056 2656 3360.67 2370.67 3513 1984.33 3513 1497 3513 995 3356.67 604.667 3044 326 2731.33 48 2290.67-91 1722-91 1526-91 1326.33-74.3333 1123-41 920.333-7.66667 710.667 42.3333 494 109L494 744C681.333 642 875 566 1075 516 1275 466 1486.33 441 1709 441 2069.67 441 2355 535.667 2565 725 2775.67 914.333 2881 1171.67 2881 1497 2881 1821.67 2775.67 2078.67 2565 2268 2355 2458 2069.67 2553 1709 2553 1540.33 2553 1372 2534.33 1204 2497 1036.67 2459.67 865.667 2401.33 691 2322L691 4666Z" id="DejaVuSans-35" transform="scale(0.015625 0.015625)"/></defs><use width="100%" height="100%" xlink:href="#DejaVuSans-32"></use><use x="63.623" width="100%" height="100%" xlink:href="#DejaVuSans-35"></use></g></g></g><g id="xtick_3"><g id="line2d_3"><g><use x="242.819" y="384.48" width="100%" height="100%" xlink:href="#m3ca9d1f953" stroke="#000000" stroke-width="0.8"></use></g></g><g id="text_3"><g transform="matrix(0.1 0 0 -0.1 236.457 399.078)"><use width="100%" height="100%" xlink:href="#DejaVuSans-35"></use><use x="63.623" width="100%" height="100%" xlink:href="#DejaVuSans-30"></use></g></g></g><g id="xtick_4"><g id="line2d_4"><g><use x="306.547" y="384.48" width="100%" height="100%" xlink:href="#m3ca9d1f953" stroke="#000000" stroke-width="0.8"></use></g></g><g id="text_4"><g transform="matrix(0.1 0 0 -0.1 300.184 399.078)"><defs><path d="M525 4666 3525 4666 3525 4397 1831 0 1172 0 2766 4134 525 4134 525 4666Z" id="DejaVuSans-37" transform="scale(0.015625 0.015625)"/></defs><use width="100%" height="100%" xlink:href="#DejaVuSans-37"></use><use x="63.623" width="100%" height="100%" xlink:href="#DejaVuSans-35"></use></g></g></g><g id="xtick_5"><g id="line2d_5"><g><use x="370.275" y="384.48" width="100%" height="100%" xlink:href="#m3ca9d1f953" stroke="#000000" stroke-width="0.8"></use></g></g><g id="text_5"><g transform="matrix(0.1 0 0 -0.1 360.731 399.078)"><defs><path d="M794 531 1825 531 1825 4091 703 3866 703 4441 1819 4666 2450 4666 2450 531 3481 531 3481 0 794 0 794 531Z" id="DejaVuSans-31" transform="scale(0.015625 0.015625)"/></defs><use width="100%" height="100%" xlink:href="#DejaVuSans-31"></use><use x="63.623" width="100%" height="100%" xlink:href="#DejaVuSans-30"></use><use x="127.246" width="100%" height="100%" xlink:href="#DejaVuSans-30"></use></g></g></g><g id="xtick_6"><g id="line2d_6"><g><use x="434.002" y="384.48" width="100%" height="100%" xlink:href="#m3ca9d1f953" stroke="#000000" stroke-width="0.8"></use></g></g><g id="text_6"><g transform="matrix(0.1 0 0 -0.1 424.459 399.078)"><use width="100%" height="100%" xlink:href="#DejaVuSans-31"></use><use x="63.623" width="100%" height="100%" xlink:href="#DejaVuSans-32"></use><use x="127.246" width="100%" height="100%" xlink:href="#DejaVuSans-35"></use></g></g></g><g id="xtick_7"><g id="line2d_7"><g><use x="497.73" y="384.48" width="100%" height="100%" xlink:href="#m3ca9d1f953" stroke="#000000" stroke-width="0.8"></use></g></g><g id="text_7"><g transform="matrix(0.1 0 0 -0.1 488.186 399.078)"><use width="100%" height="100%" xlink:href="#DejaVuSans-31"></use><use x="63.623" width="100%" height="100%" xlink:href="#DejaVuSans-35"></use><use x="127.246" width="100%" height="100%" xlink:href="#DejaVuSans-30"></use></g></g></g><g id="xtick_8"><g id="line2d_8"><g><use x="561.458" y="384.48" width="100%" height="100%" xlink:href="#m3ca9d1f953" stroke="#000000" stroke-width="0.8"></use></g></g><g id="text_8"><g transform="matrix(0.1 0 0 -0.1 551.914 399.078)"><use width="100%" height="100%" xlink:href="#DejaVuSans-31"></use><use x="63.623" width="100%" height="100%" xlink:href="#DejaVuSans-37"></use><use x="127.246" width="100%" height="100%" xlink:href="#DejaVuSans-35"></use></g></g></g><g id="xtick_9"><g id="line2d_9"><g><use x="625.185" y="384.48" width="100%" height="100%" xlink:href="#m3ca9d1f953" stroke="#000000" stroke-width="0.8"></use></g></g><g id="text_9"><g transform="matrix(0.1 0 0 -0.1 615.642 399.078)"><use width="100%" height="100%" xlink:href="#DejaVuSans-32"></use><use x="63.623" width="100%" height="100%" xlink:href="#DejaVuSans-30"></use><use x="127.246" width="100%" height="100%" xlink:href="#DejaVuSans-30"></use></g></g></g><g id="text_10"><g transform="matrix(0.1 0 0 -0.1 355.01 412.757)"><defs><path d="M3425 4513 3425 3897C3185.67 4011.67 2959.67 4097 2747 4153 2534.33 4209.67 2329 4238 2131 4238 1787.67 4238 1522.67 4171.33 1336 4038 1149.33 3904.67 1056 3715 1056 3469 1056 3262.33 1118 3106.33 1242 3001 1366 2896.33 1601 2811.67 1947 2747L2328 2669C2798.67 2579 3146 2421 3370 2195 3594 1969 3706 1666.67 3706 1288 3706 835.333 3554.33 492.333 3251 259 2948.33 25.6667 2504.33-91 1919-91 1698.33-91 1463.33-66 1214-16 965.333 34 707.667 108 441 206L441 856C697 712.667 948 604.333 1194 531 1440 458.333 1681.67 422 1919 422 2279 422 2557 492.667 2753 634 2949 776 3047 978.333 3047 1241 3047 1469.67 2976.67 1648.67 2836 1778 2695.33 1907.33 2464.67 2004.33 2144 2069L1759 2144C1288.33 2237.33 947.667 2384 737 2584 527 2784 422 3062.33 422 3419 422 3831.67 567.333 4156.67 858 4394 1148.67 4631.33 1549 4750 2059 4750 2278.33 4750 2501.33 4730 2728 4690 2955.33 4650.67 3187.67 4591.67 3425 4513Z" id="DejaVuSans-53" transform="scale(0.015625 0.015625)"/><path d="M1172 4494 1172 3500 2356 3500 2356 3053 1172 3053 1172 1153C1172 867.667 1211 684.333 1289 603 1367 521.667 1526 481 1766 481L2356 481 2356 0 1766 0C1322 0 1015.67 82.6667 847 248 678.333 414 594 715.667 594 1153L594 3053 172 3053 172 3500 594 3500 594 4494 1172 4494Z" id="DejaVuSans-74" transform="scale(0.015625 0.015625)"/><path d="M3597 1894 3597 1613 953 1613C978.333 1217 1097.67 915.333 1311 708 1524.33 500.667 1821.67 397 2203 397 2423.67 397 2637.67 424 2845 478 3052.33 532 3258.33 613.333 3463 722L3463 178C3256.33 90.6667 3044.67 24 2828-22 2611.33-68 2391.67-91 2169-91 1610.33-91 1168 71.3333 842 396 516 721.333 353 1161.33 353 1716 353 2288.67 507.667 2743 817 3079 1126.33 3415.67 1543.67 3584 2069 3584 2539.67 3584 2912 3432.33 3186 3129 3460 2826.33 3597 2414.67 3597 1894ZM3022 2063C3018 2377 2930 2627.67 2758 2815 2586 3003 2358.33 3097 2075 3097 1754.33 3097 1497.67 3006.33 1305 2825 1112.33 2643.67 1001.33 2388.33 972 2059L3022 2063Z" id="DejaVuSans-65" transform="scale(0.015625 0.015625)"/><path d="M1159 525 1159-1331 581-1331 581 3500 1159 3500 1159 2969C1280.33 3177 1433 3331.33 1617 3432 1801.67 3533.33 2022 3584 2278 3584 2703.33 3584 3048.67 3415.33 3314 3078 3580 2740.67 3713 2297 3713 1747 3713 1197 3580 753 3314 415 3048.67 77.6667 2703.33-91 2278-91 2022-91 1801.67-40.3333 1617 61 1433 162.333 1280.33 317 1159 525ZM3116 1747C3116 2169.67 3029 2501.33 2855 2742 2681 2982.67 2442 3103 2138 3103 1833.33 3103 1594 2982.67 1420 2742 1246 2501.33 1159 2169.67 1159 1747 1159 1324.33 1246 992.667 1420 752 1594 511.333 1833.33 391 2138 391 2442 391 2681 511.333 2855 752 3029 992.667 3116 1324.33 3116 1747Z" id="DejaVuSans-70" transform="scale(0.015625 0.015625)"/><path d="M2834 3397 2834 2853C2672 2936.33 2503.33 2998.67 2328 3040 2153.33 3082 1972 3103 1784 3103 1498.67 3103 1284.67 3059.33 1142 2972 999.333 2884.67 928 2753.33 928 2578 928 2444.67 979 2340 1081 2264 1183 2188 1388.33 2115.67 1697 2047L1894 2003C2302 1915.67 2592 1792.33 2764 1633 2936 1473.67 3022 1251.33 3022 966 3022 640.667 2893.33 383 2636 193 2378.67 3.66667 2025-91 1575-91 1387.67-91 1192.33-72.6667 989-36 785.667 0.666667 571.667 55.3333 347 128L347 722C559.667 611.333 769 528.333 975 473 1181 418.333 1385.33 391 1588 391 1858.67 391 2066.67 437.333 2212 530 2358 622.667 2431 753.333 2431 922 2431 1078 2378.33 1197.67 2273 1281 2168.33 1364.33 1937.67 1444.67 1581 1522L1381 1569C1025 1643.67 767.667 1758.67 609 1914 451 2069.33 372 2282.33 372 2553 372 2882.33 488.667 3136.33 722 3315 955.333 3494.33 1286.67 3584 1716 3584 1928 3584 2127.67 3568.33 2315 3537 2503 3506.33 2676 3459.67 2834 3397Z" id="DejaVuSans-73" transform="scale(0.015625 0.015625)"/></defs><use width="100%" height="100%" xlink:href="#DejaVuSans-53"></use><use x="63.4766" width="100%" height="100%" xlink:href="#DejaVuSans-74"></use><use x="102.686" width="100%" height="100%" xlink:href="#DejaVuSans-65"></use><use x="164.209" width="100%" height="100%" xlink:href="#DejaVuSans-70"></use><use x="227.686" width="100%" height="100%" xlink:href="#DejaVuSans-73"></use></g></g></g><g id="matplotlib.axis_2"><g id="ytick_1"><g id="line2d_10"><defs><path d="M0 0-3.5 0" id="md8e7e76a4f" stroke="#000000" stroke-width="0.8"/></defs><g><use x="90" y="369.36" width="100%" height="100%" xlink:href="#md8e7e76a4f" stroke="#000000" stroke-width="0.8"></use></g></g><g id="text_11"><g transform="matrix(0.1 0 0 -0.1 67.0969 373.159)"><defs><path d="M684 794 1344 794 1344 0 684 0 684 794Z" id="DejaVuSans-2e" transform="scale(0.015625 0.015625)"/></defs><use width="100%" height="100%" xlink:href="#DejaVuSans-31"></use><use x="63.623" width="100%" height="100%" xlink:href="#DejaVuSans-2e"></use><use x="95.4102" width="100%" height="100%" xlink:href="#DejaVuSans-30"></use></g></g></g><g id="ytick_2"><g id="line2d_11"><g><use x="90" y="322.627" width="100%" height="100%" xlink:href="#md8e7e76a4f" stroke="#000000" stroke-width="0.8"></use></g></g><g id="text_12"><g transform="matrix(0.1 0 0 -0.1 67.0969 326.427)"><use width="100%" height="100%" xlink:href="#DejaVuSans-31"></use><use x="63.623" width="100%" height="100%" xlink:href="#DejaVuSans-2e"></use><use x="95.4102" width="100%" height="100%" xlink:href="#DejaVuSans-35"></use></g></g></g><g id="ytick_3"><g id="line2d_12"><g><use x="90" y="275.895" width="100%" height="100%" xlink:href="#md8e7e76a4f" stroke="#000000" stroke-width="0.8"></use></g></g><g id="text_13"><g transform="matrix(0.1 0 0 -0.1 67.0969 279.694)"><use width="100%" height="100%" xlink:href="#DejaVuSans-32"></use><use x="63.623" width="100%" height="100%" xlink:href="#DejaVuSans-2e"></use><use x="95.4102" width="100%" height="100%" xlink:href="#DejaVuSans-30"></use></g></g></g><g id="ytick_4"><g id="line2d_13"><g><use x="90" y="229.162" width="100%" height="100%" xlink:href="#md8e7e76a4f" stroke="#000000" stroke-width="0.8"></use></g></g><g id="text_14"><g transform="matrix(0.1 0 0 -0.1 67.0969 232.962)"><use width="100%" height="100%" xlink:href="#DejaVuSans-32"></use><use x="63.623" width="100%" height="100%" xlink:href="#DejaVuSans-2e"></use><use x="95.4102" width="100%" height="100%" xlink:href="#DejaVuSans-35"></use></g></g></g><g id="ytick_5"><g id="line2d_14"><g><use x="90" y="182.43" width="100%" height="100%" xlink:href="#md8e7e76a4f" stroke="#000000" stroke-width="0.8"></use></g></g><g id="text_15"><g transform="matrix(0.1 0 0 -0.1 67.0969 186.229)"><defs><path d="M2597 2516C2899 2451.33 3134.67 2316.67 3304 2112 3474 1908 3559 1656 3559 1356 3559 896 3400.67 539.667 3084 287 2767.33 35 2317.33-91 1734-91 1538.67-91 1337.33-71.6667 1130-33 922.667 5.66667 708.667 63.6667 488 141L488 750C662.667 648 854 571 1062 519 1270.67 467 1488.67 441 1716 441 2111.33 441 2412.67 519 2620 675 2827.33 831 2931 1058 2931 1356 2931 1631.33 2834.67 1846.33 2642 2001 2449.33 2156.33 2181.33 2234 1838 2234L1294 2234 1294 2753 1863 2753C2173 2753 2410.33 2815 2575 2939 2739.67 3063 2822 3241.67 2822 3475 2822 3714.33 2737 3898 2567 4026 2397.67 4154.67 2154.67 4219 1838 4219 1664.67 4219 1479 4200 1281 4162 1083 4124.67 865.333 4066.67 628 3988L628 4550C868 4616.67 1092.67 4666.67 1302 4700 1511.33 4733.33 1708.67 4750 1894 4750 2373.33 4750 2752.33 4641 3031 4423 3310.33 4205.67 3450 3911.67 3450 3541 3450 3282.33 3376 3064 3228 2886 3080 2708 2869.67 2584.67 2597 2516Z" id="DejaVuSans-33" transform="scale(0.015625 0.015625)"/></defs><use width="100%" height="100%" xlink:href="#DejaVuSans-33"></use><use x="63.623" width="100%" height="100%" xlink:href="#DejaVuSans-2e"></use><use x="95.4102" width="100%" height="100%" xlink:href="#DejaVuSans-30"></use></g></g></g><g id="ytick_6"><g id="line2d_15"><g><use x="90" y="135.697" width="100%" height="100%" xlink:href="#md8e7e76a4f" stroke="#000000" stroke-width="0.8"></use></g></g><g id="text_16"><g transform="matrix(0.1 0 0 -0.1 67.0969 139.497)"><use width="100%" height="100%" xlink:href="#DejaVuSans-33"></use><use x="63.623" width="100%" height="100%" xlink:href="#DejaVuSans-2e"></use><use x="95.4102" width="100%" height="100%" xlink:href="#DejaVuSans-35"></use></g></g></g><g id="ytick_7"><g id="line2d_16"><g><use x="90" y="88.9648" width="100%" height="100%" xlink:href="#md8e7e76a4f" stroke="#000000" stroke-width="0.8"></use></g></g><g id="text_17"><g transform="matrix(0.1 0 0 -0.1 67.0969 92.7641)"><defs><path d="M2419 4116 825 1625 2419 1625 2419 4116ZM2253 4666 3047 4666 3047 1625 3713 1625 3713 1100 3047 1100 3047 0 2419 0 2419 1100 313 1100 313 1709 2253 4666Z" id="DejaVuSans-34" transform="scale(0.015625 0.015625)"/></defs><use width="100%" height="100%" xlink:href="#DejaVuSans-34"></use><use x="63.623" width="100%" height="100%" xlink:href="#DejaVuSans-2e"></use><use x="95.4102" width="100%" height="100%" xlink:href="#DejaVuSans-30"></use></g></g></g><g id="text_18"><g transform="matrix(6.12323e-18 -0.1 -0.1 -6.12323e-18 61.0172 250.004)"><defs><path d="M628 4666 3309 4666 3309 4134 1259 4134 1259 2759 3109 2759 3109 2228 1259 2228 1259 0 628 0 628 4666Z" id="DejaVuSans-46" transform="scale(0.015625 0.015625)"/><path d="M2194 1759C1729.33 1759 1407.33 1706 1228 1600 1048.67 1494 959 1312.67 959 1056 959 852 1026.33 690 1161 570 1295.67 450.667 1478.33 391 1709 391 2028.33 391 2284.33 504 2477 730 2669.67 956 2766 1256.33 2766 1631L2766 1759 2194 1759ZM3341 1997 3341 0 2766 0 2766 531C2634.67 319 2471 162.333 2275 61 2079-40.3333 1839.33-91 1556-91 1198-91 913 9.66667 701 211 489.667 412.333 384 681.667 384 1019 384 1412.33 515.667 1709 779 1909 1043 2109 1436.33 2209 1959 2209L2766 2209 2766 2266C2766 2530.67 2679 2735.33 2505 2880 2331 3024.67 2086.67 3097 1772 3097 1572 3097 1377 3073 1187 3025 997.667 2977 815.667 2905 641 2809L641 3341C851 3422.33 1055 3483 1253 3523 1451 3563.67 1643.67 3584 1831 3584 2337.67 3584 2716 3452.67 2966 3190 3216 2928 3341 2530.33 3341 1997Z" id="DejaVuSans-61" transform="scale(0.015625 0.015625)"/><path d="M544 1381 544 3500 1119 3500 1119 1403C1119 1071.67 1183.33 823 1312 657 1441.33 491.667 1635.33 409 1894 409 2204 409 2449 508 2629 706 2809.67 904 2900 1174 2900 1516L2900 3500 3475 3500 3475 0 2900 0 2900 538C2760.67 325.333 2598.67 167.333 2414 64 2230-39.3333 2016-91 1772-91 1370-91 1064.67 34 856 284 648 534 544 899.667 544 1381ZM1991 3584 1991 3584Z" id="DejaVuSans-75" transform="scale(0.015625 0.015625)"/><path d="M2631 2963C2566.33 3000.33 2496 3027.67 2420 3045 2344 3063 2260.33 3072 2169 3072 1843.67 3072 1594 2966.33 1420 2755 1246 2543.67 1159 2240 1159 1844L1159 0 581 0 581 3500 1159 3500 1159 2956C1280.33 3168.67 1437.67 3326.33 1631 3429 1825 3532.33 2060.67 3584 2338 3584 2377.33 3584 2421 3581.33 2469 3576 2517 3571.33 2570 3563.67 2628 3553L2631 2963Z" id="DejaVuSans-72" transform="scale(0.015625 0.015625)"/><path d="" id="DejaVuSans-20" transform="scale(0.015625 0.015625)"/><path d="M3513 2113 3513 0 2938 0 2938 2094C2938 2425.33 2873.33 2673 2744 2837 2614.67 3001.67 2421 3084 2163 3084 1852.33 3084 1607.33 2985 1428 2787 1248.67 2589.67 1159 2320 1159 1978L1159 0 581 0 581 4863 1159 4863 1159 2956C1297 3166.67 1459 3324 1645 3428 1831.67 3532 2047 3584 2291 3584 2693 3584 2997 3459.67 3203 3211 3409.67 2962.33 3513 2596.33 3513 2113Z" id="DejaVuSans-68" transform="scale(0.015625 0.015625)"/><path d="M603 3500 1178 3500 1178 0 603 0 603 3500ZM603 4863 1178 4863 1178 4134 603 4134 603 4863Z" id="DejaVuSans-69" transform="scale(0.015625 0.015625)"/><path d="M2375 4863 2375 4384 1825 4384C1619 4384 1475.67 4342.33 1395 4259 1315 4175.67 1275 4025.67 1275 3809L1275 3500 2222 3500 2222 3053 1275 3053 1275 0 697 0 697 3053 147 3053 147 3500 697 3500 697 3744C697 4133.33 787.667 4417 969 4595 1150.33 4773.67 1437.67 4863 1831 4863L2375 4863Z" id="DejaVuSans-66" transform="scale(0.015625 0.015625)"/></defs><use width="100%" height="100%" xlink:href="#DejaVuSans-46"></use><use x="52.0195" width="100%" height="100%" xlink:href="#DejaVuSans-65"></use><use x="113.543" width="100%" height="100%" xlink:href="#DejaVuSans-61"></use><use x="174.822" width="100%" height="100%" xlink:href="#DejaVuSans-74"></use><use x="214.031" width="100%" height="100%" xlink:href="#DejaVuSans-75"></use><use x="277.41" width="100%" height="100%" xlink:href="#DejaVuSans-72"></use><use x="316.273" width="100%" height="100%" xlink:href="#DejaVuSans-65"></use><use x="377.797" width="100%" height="100%" xlink:href="#DejaVuSans-20"></use><use x="409.584" width="100%" height="100%" xlink:href="#DejaVuSans-53"></use><use x="473.061" width="100%" height="100%" xlink:href="#DejaVuSans-68"></use><use x="536.439" width="100%" height="100%" xlink:href="#DejaVuSans-69"></use><use x="564.223" width="100%" height="100%" xlink:href="#DejaVuSans-66"></use><use x="597.678" width="100%" height="100%" xlink:href="#DejaVuSans-74"></use></g></g></g><g id="line2d_17"><path d="M115.364 369.36 163.797 369.359 166.346 367.89 168.895 363.996 171.444 358.352 173.993 352.018 176.542 346.274 179.091 342.095 181.64 339.926 184.19 339.448 186.739 339.977 189.288 340.741 191.837 341.074 194.386 340.506 196.935 338.736 199.484 335.707 202.033 331.68 204.582 327.199 207.132 322.963 209.681 319.57 212.23 317.269 214.779 315.93 217.328 315.193 219.877 314.631 222.426 313.918 224.975 312.898 227.524 311.572 232.623 308.677 235.172 307.547 237.721 306.77 245.368 305.253 247.917 304.461 250.466 303.434 253.016 302.154 258.114 299.403 260.663 298.298 263.212 297.452 273.408 294.624 281.056 291.826 283.605 291.056 286.154 290.451 293.801 289.093 296.35 288.424 298.9 287.566 306.547 284.681 309.096 283.932 311.645 283.382 316.743 282.736 321.841 282.173 326.94 281.22 337.136 278.875 342.234 278.084 354.98 276.359 365.176 274.608 370.275 273.673 385.569 271.141 398.315 269.237 416.159 266.234 421.257 265.684 449.297 263.496 459.493 262.925 482.435 261.987 495.181 261.648 520.672 261.289 551.261 261.14 622.636 260.855 622.636 260.855" stroke="#1F77B4" stroke-width="1.5" stroke-linecap="square" fill="none" clip-path="url(#p87048a8cb5)"/></g><g id="line2d_18"><path d="M115.364 369.36 163.797 369.36 166.346 367.857 168.895 363.738 171.444 357.28 173.993 349.208 176.542 339.801 181.64 318.981 189.288 286.694 194.386 266.543 199.484 247.839 202.033 239.489 207.132 224.125 209.681 217.222 212.23 210.764 217.328 199.408 219.877 194.51 224.975 185.826 227.524 181.818 230.074 178.478 232.623 174.692 237.721 168.903 240.27 166.231 242.819 163.336 245.368 161.332 250.466 156.879 253.016 155.097 255.565 153.539 258.114 151.535 263.212 148.417 265.761 146.636 268.31 145.3 270.859 144.409 273.408 143.073 275.958 141.515 278.507 140.847 286.154 137.507 291.252 135.725 293.801 135.057 296.35 133.944 298.9 133.053 301.449 132.385 303.998 131.272 306.547 130.604 309.096 130.158 311.645 129.49 314.194 128.6 316.743 127.932 319.292 127.041 321.841 126.818 324.391 126.15 326.94 125.705 329.489 125.037 332.038 124.592 337.136 123.256 339.685 123.033 342.234 122.365 344.783 122.142 347.333 121.697 349.882 121.697 352.431 121.252 354.98 121.029 357.529 120.361 360.078 120.138 362.627 120.138 365.176 119.47 367.725 119.47 370.275 119.248 372.824 118.802 375.373 118.58 377.922 118.58 380.471 118.134 383.02 117.912 385.569 117.912 388.118 117.466 390.667 117.466 393.217 117.244 395.766 117.244 398.315 117.021 400.864 117.021 403.413 116.798 405.962 116.798 408.511 116.13 411.06 116.13 416.159 115.685 418.708 115.685 421.257 115.462 431.453 115.462 439.1 114.794 449.297 114.794 454.395 114.349 456.944 114.572 459.493 114.572 462.042 114.349 497.73 114.349 500.279 114.126 566.556 114.126 569.105 113.904 571.654 113.904 574.203 113.681 622.636 113.681 622.636 113.681" stroke="#FF7F0E" stroke-width="1.5" stroke-linecap="square" fill="none" clip-path="url(#p87048a8cb5)"/></g><g id="line2d_19"><path d="M115.364 369.36 166.346 369.279 168.895 369.022 171.444 368.463 173.993 367.405 176.542 365.632 179.091 362.975 181.64 359.353 184.19 354.835 191.837 339.137 194.386 334.728 196.935 331.311 199.484 328.895 202.033 327.258 207.132 324.882 209.681 323.482 212.23 321.707 219.877 315.313 222.426 313.541 224.975 312.174 227.524 311.15 235.172 308.575 240.27 306.32 242.819 305.159 245.368 304.137 247.917 303.316 253.016 302.164 255.565 301.591 258.114 300.869 260.663 299.948 270.859 295.473 273.408 294.568 278.507 293.075 286.154 290.876 293.801 288.437 298.9 287.141 309.096 285.13 314.194 283.719 319.292 282.267 324.391 281.132 329.489 280.341 339.685 278.961 347.333 277.634 354.98 276.288 365.176 274.6 370.275 273.663 388.118 270.703 403.413 268.148 418.708 266.012 434.002 264.483 444.199 263.798 467.141 262.473 472.239 262.224 484.984 261.892 518.123 261.32 541.065 261.162 609.891 260.877 622.636 260.851 622.636 260.851" stroke="#2CA02C" stroke-width="1.5" stroke-linecap="square" fill="none" clip-path="url(#p87048a8cb5)"/></g><g id="line2d_20"><path d="M115.364 369.36 166.346 369.286 171.444 368.862 179.091 367.906 196.935 365.555 209.681 364.118 235.172 361.609 250.466 359.482 255.565 358.49 273.408 354.467 283.605 352.505 291.252 351.276 301.449 349.835 311.645 348.673 321.841 347.717 342.234 346.043 395.766 341.861 408.511 340.423 418.708 339.332 428.904 338.663 441.65 338.077 459.493 337.345 472.239 336.571 492.632 335.866 515.574 335.253 533.418 335.003 574.203 334.691 622.636 334.614 622.636 334.614" stroke="#D62728" stroke-width="1.5" stroke-linecap="square" fill="none" clip-path="url(#p87048a8cb5)"/></g><g id="line2d_21"><path d="M115.364 369.36 163.797 369.36 166.346 367.748 168.895 362.97 171.444 354.968 173.993 344.688 176.542 332.574 181.64 305.568 189.288 264.67 194.386 239.331 196.935 227.662 199.484 216.771 204.582 196.766 209.681 179.207 212.23 171.427 214.779 164.093 217.328 157.202 219.877 150.979 222.426 145.199 224.975 140.087 235.172 122.528 237.721 119.861 242.819 113.637 245.368 110.97 250.466 106.08 253.016 103.857 255.565 102.079 258.114 99.8561 260.663 97.8557 263.212 96.7443 268.31 94.0771 270.859 92.5212 273.408 91.1876 275.958 90.5207 283.605 87.8535 286.154 87.1867 288.703 86.0753 296.35 84.0749 303.998 82.7413 306.547 81.8522 309.096 81.4076 311.645 81.1854 314.194 80.7408 319.292 80.2963 324.391 78.9626 326.94 78.5181 329.489 78.2958 332.038 78.2958 334.587 77.629 337.136 77.1845 339.685 77.1845 342.234 76.7399 344.783 75.8508 347.333 75.6286 349.882 75.184 352.431 75.184 354.98 74.9618 357.529 74.5172 360.078 74.295 362.627 74.295 367.725 73.4059 375.373 72.7391 377.922 72.2945 383.02 72.2945 385.569 71.85 388.118 71.85 390.667 71.6277 393.217 71.1832 395.766 71.1832 400.864 70.7386 403.413 70.7386 405.962 70.2941 413.609 70.2941 416.159 70.0718 418.708 69.6273 423.806 69.6273 426.355 69.405 428.904 69.405 431.453 68.9604 434.002 68.7382 444.199 68.7382 449.297 68.2936 464.592 68.2936 467.141 68.0714 469.69 67.6268 472.239 67.6268 474.788 67.4045 538.516 67.4045 541.065 67.1823 553.81 67.1823 556.359 66.96 622.636 66.96 622.636 66.96" stroke="#9467BD" stroke-width="1.5" stroke-linecap="square" fill="none" clip-path="url(#p87048a8cb5)"/></g><g id="line2d_22"><path d="M115.364 369.36 163.797 369.36 166.346 369.241 168.895 368.93 173.993 367.971 181.64 366.139 191.837 363.623 199.484 361.942 212.23 359.374 222.426 357.351 237.721 353.876 245.368 351.805 255.565 348.784 268.31 345.087 278.507 342.29 291.252 338.954 311.645 332.773 316.743 331.405 326.94 329.245 334.587 327.84 342.234 326.673 349.882 325.744 360.078 324.558 372.824 323.045 385.569 321.849 400.864 320.723 423.806 319.108 436.551 318.463 464.592 316.805 474.788 316.408 523.221 315.268 564.007 315.022 622.636 314.903 622.636 314.903" stroke="#8C564B" stroke-width="1.5" stroke-linecap="square" fill="none" clip-path="url(#p87048a8cb5)"/></g><g id="patch_3"><path d="M90 384.48 90 51.84" stroke="#000000" stroke-width="0.8" stroke-linecap="square" stroke-linejoin="miter" fill="none"/></g><g id="patch_4"><path d="M648 384.48 648 51.84" stroke="#000000" stroke-width="0.8" stroke-linecap="square" stroke-linejoin="miter" fill="none"/></g><g id="patch_5"><path d="M90 384.48 648 384.48" stroke="#000000" stroke-width="0.8" stroke-linecap="square" stroke-linejoin="miter" fill="none"/></g><g id="patch_6"><path d="M90 51.84 648 51.84" stroke="#000000" stroke-width="0.8" stroke-linecap="square" stroke-linejoin="miter" fill="none"/></g><g id="text_19"><g transform="matrix(0.12 0 0 -0.12 263.685 45.84)"><defs><path d="M1959 3097C1651 3097 1407.33 2976.67 1228 2736 1048.67 2495.33 959 2165.67 959 1747 959 1328.33 1048 998.667 1226 758 1404.67 517.333 1649 397 1959 397 2265.67 397 2508.33 517.667 2687 759 2866.33 1001 2956 1330.33 2956 1747 2956 2161.67 2866.33 2490.33 2687 2733 2508.33 2975.67 2265.67 3097 1959 3097ZM1959 3584C2459 3584 2851.67 3421.33 3137 3096 3423 2771.33 3566 2321.67 3566 1747 3566 1174.33 3423 724.667 3137 398 2851.67 72 2459-91 1959-91 1457-91 1063.67 72 779 398 495 724.667 353 1174.33 353 1747 353 2321.67 495 2771.33 779 3096 1063.67 3421.33 1457 3584 1959 3584Z" id="DejaVuSans-6f" transform="scale(0.015625 0.015625)"/><path d="M1259 4147 1259 519 2022 519C2666 519 3137.33 664.667 3436 956 3734.67 1248 3884 1708.67 3884 2338 3884 2962.67 3734.67 3420.33 3436 3711 3137.33 4001.67 2666 4147 2022 4147L1259 4147ZM628 4666 1925 4666C2829 4666 3492.33 4478 3915 4102 4338.33 3726 4550 3138 4550 2338 4550 1533.33 4337.33 942.333 3912 565 3487.33 188.333 2825 0 1925 0L628 0 628 4666Z" id="DejaVuSans-44" transform="scale(0.015625 0.015625)"/><path d="M3513 2113 3513 0 2938 0 2938 2094C2938 2425.33 2873.33 2673 2744 2837 2614.67 3001.67 2421 3084 2163 3084 1852.33 3084 1607.33 2985 1428 2787 1248.67 2589.67 1159 2320 1159 1978L1159 0 581 0 581 3500 1159 3500 1159 2956C1297 3166.67 1459 3324 1645 3428 1831.67 3532 2047 3584 2291 3584 2693 3584 2997 3459.67 3203 3211 3409.67 2962.33 3513 2596.33 3513 2113Z" id="DejaVuSans-6e" transform="scale(0.015625 0.015625)"/><path d="M628 4666 1569 4666 2759 1491 3956 4666 4897 4666 4897 0 4281 0 4281 4097 3078 897 2444 897 1241 4097 1241 0 628 0 628 4666Z" id="DejaVuSans-4d" transform="scale(0.015625 0.015625)"/><path d="M2906 2969 2906 4863 3481 4863 3481 0 2906 0 2906 525C2785.33 317 2632.67 162.333 2448 61 2264-40.3333 2042.67-91 1784-91 1361.33-91 1017 77.6667 751 415 485.667 753 353 1197 353 1747 353 2297 485.667 2740.67 751 3078 1017 3415.33 1361.33 3584 1784 3584 2042.67 3584 2264 3533.33 2448 3432 2632.67 3331.33 2785.33 3177 2906 2969ZM947 1747C947 1324.33 1034 992.667 1208 752 1382 511.333 1621 391 1925 391 2229 391 2468.33 511.333 2643 752 2818.33 992.667 2906 1324.33 2906 1747 2906 2169.67 2818.33 2501.33 2643 2742 2468.33 2982.67 2229 3103 1925 3103 1621 3103 1382 2982.67 1208 2742 1034 2501.33 947 2169.67 947 1747Z" id="DejaVuSans-64" transform="scale(0.015625 0.015625)"/></defs><use width="100%" height="100%" xlink:href="#DejaVuSans-46"></use><use x="52.0195" width="100%" height="100%" xlink:href="#DejaVuSans-65"></use><use x="113.543" width="100%" height="100%" xlink:href="#DejaVuSans-61"></use><use x="174.822" width="100%" height="100%" xlink:href="#DejaVuSans-74"></use><use x="214.031" width="100%" height="100%" xlink:href="#DejaVuSans-75"></use><use x="277.41" width="100%" height="100%" xlink:href="#DejaVuSans-72"></use><use x="316.273" width="100%" height="100%" xlink:href="#DejaVuSans-65"></use><use x="377.797" width="100%" height="100%" xlink:href="#DejaVuSans-20"></use><use x="409.584" width="100%" height="100%" xlink:href="#DejaVuSans-53"></use><use x="473.061" width="100%" height="100%" xlink:href="#DejaVuSans-68"></use><use x="536.439" width="100%" height="100%" xlink:href="#DejaVuSans-69"></use><use x="564.223" width="100%" height="100%" xlink:href="#DejaVuSans-66"></use><use x="597.678" width="100%" height="100%" xlink:href="#DejaVuSans-74"></use><use x="636.887" width="100%" height="100%" xlink:href="#DejaVuSans-20"></use><use x="668.674" width="100%" height="100%" xlink:href="#DejaVuSans-46"></use><use x="722.568" width="100%" height="100%" xlink:href="#DejaVuSans-6f"></use><use x="783.75" width="100%" height="100%" xlink:href="#DejaVuSans-72"></use><use x="824.863" width="100%" height="100%" xlink:href="#DejaVuSans-20"></use><use x="856.65" width="100%" height="100%" xlink:href="#DejaVuSans-44"></use><use x="933.652" width="100%" height="100%" xlink:href="#DejaVuSans-69"></use><use x="961.436" width="100%" height="100%" xlink:href="#DejaVuSans-66"></use><use x="996.641" width="100%" height="100%" xlink:href="#DejaVuSans-66"></use><use x="1031.85" width="100%" height="100%" xlink:href="#DejaVuSans-65"></use><use x="1093.37" width="100%" height="100%" xlink:href="#DejaVuSans-72"></use><use x="1132.23" width="100%" height="100%" xlink:href="#DejaVuSans-65"></use><use x="1193.76" width="100%" height="100%" xlink:href="#DejaVuSans-6e"></use><use x="1257.13" width="100%" height="100%" xlink:href="#DejaVuSans-74"></use><use x="1296.34" width="100%" height="100%" xlink:href="#DejaVuSans-20"></use><use x="1328.13" width="100%" height="100%" xlink:href="#DejaVuSans-4d"></use><use x="1414.41" width="100%" height="100%" xlink:href="#DejaVuSans-65"></use><use x="1475.93" width="100%" height="100%" xlink:href="#DejaVuSans-74"></use><use x="1515.14" width="100%" height="100%" xlink:href="#DejaVuSans-68"></use><use x="1578.52" width="100%" height="100%" xlink:href="#DejaVuSans-6f"></use><use x="1639.7" width="100%" height="100%" xlink:href="#DejaVuSans-64"></use><use x="1703.18" width="100%" height="100%" xlink:href="#DejaVuSans-73"></use></g></g><g id="legend_1"><g id="patch_7"><path d="M97 147.909 195.695 147.909C197.029 147.909 197.695 147.242 197.695 145.909L197.695 58.84C197.695 57.5067 197.029 56.84 195.695 56.84L97 56.84C95.6667 56.84 95 57.5067 95 58.84L95 145.909C95 147.242 95.6667 147.909 97 147.909Z" stroke="#CCCCCC" stroke-linejoin="miter" fill="#FFFFFF" opacity="0.8"/></g><g id="line2d_23"><path d="M99 64.9384 119 64.9384" stroke="#1F77B4" stroke-width="1.5" stroke-linecap="square" fill="none"/></g><g id="line2d_24"></g><g id="text_20"><g transform="matrix(0.1 0 0 -0.1 127 68.4384)"><defs><path d="M628 4666 1259 4666 1259 0 628 0 628 4666Z" id="DejaVuSans-49" transform="scale(0.015625 0.015625)"/><path d="M1831 0 50 4666 709 4666 2188 738 3669 4666 4325 4666 2547 0 1831 0Z" id="DejaVuSans-56" transform="scale(0.015625 0.015625)"/><path d="M628 4666 1259 4666 1259 531 3531 531 3531 0 628 0 628 4666Z" id="DejaVuSans-4c" transform="scale(0.015625 0.015625)"/><path d="M1259 4147 1259 2394 2053 2394C2347 2394 2574 2470 2734 2622 2894.67 2774 2975 2990.67 2975 3272 2975 3551.33 2894.67 3767 2734 3919 2574 4071 2347 4147 2053 4147L1259 4147ZM628 4666 2053 4666C2576.33 4666 2971.67 4547.67 3239 4311 3507 4074.33 3641 3728 3641 3272 3641 2811.33 3507 2463.33 3239 2228 2971.67 1992.67 2576.33 1875 2053 1875L1259 1875 1259 0 628 0 628 4666Z" id="DejaVuSans-50" transform="scale(0.015625 0.015625)"/><path d="M313 2009 1997 2009 1997 1497 313 1497 313 2009Z" id="DejaVuSans-2d" transform="scale(0.015625 0.015625)"/><path d="M-19 4666 3928 4666 3928 4134 2272 4134 2272 0 1638 0 1638 4134-19 4134-19 4666Z" id="DejaVuSans-54" transform="scale(0.015625 0.015625)"/><path d="M3513 3500 2247 1797 3578 0 2900 0 1881 1375 863 0 184 0 1544 1831 300 3500 978 3500 1906 2253 2834 3500 3513 3500Z" id="DejaVuSans-78" transform="scale(0.015625 0.015625)"/><path d="M2841 2188C2976.33 2142 3108 2044 3236 1894 3364 1744 3492.67 1537.67 3622 1275L4263 0 3584 0 2988 1197C2833.33 1509.67 2683.67 1717 2539 1819 2394.33 1921 2197 1972 1947 1972L1259 1972 1259 0 628 0 628 4666 2053 4666C2586.33 4666 2984.33 4554.33 3247 4331 3509.67 4108.33 3641 3772 3641 3322 3641 3028 3572.67 2784 3436 2590 3299.33 2396.67 3101 2262.67 2841 2188ZM1259 4147 1259 2491 2053 2491C2357 2491 2586.67 2561.33 2742 2702 2897.33 2842.67 2975 3049.33 2975 3322 2975 3594.67 2897.33 3800.33 2742 3939 2586.67 4077.67 2357 4147 2053 4147L1259 4147Z" id="DejaVuSans-52" transform="scale(0.015625 0.015625)"/><path d="M2906 1791C2906 2207.67 2820 2530.33 2648 2759 2476.67 2988.33 2235.67 3103 1925 3103 1617 3103 1377 2988.33 1205 2759 1033 2530.33 947 2207.67 947 1791 947 1376.33 1033 1054.33 1205 825 1377 595.667 1617 481 1925 481 2235.67 481 2476.67 595.667 2648 825 2820 1054.33 2906 1376.33 2906 1791ZM3481 434C3481-161.333 3348.67-604.333 3084-895 2820-1185.67 2415-1331 1869-1331 1667-1331 1476.33-1316 1297-1286 1117.67-1256 943.667-1209.67 775-1147L775-588C943.667-679.333 1110.33-746.667 1275-790 1439.67-834 1607.33-856 1778-856 2155.33-856 2437.67-757.667 2625-561 2812.33-364.333 2906-67 2906 331L2906 616C2787.33 409.333 2635.33 255 2450 153 2264.67 51 2042.67 0 1784 0 1355.33 0 1009.67 163.333 747 490 484.333 817.333 353 1251 353 1791 353 2332.33 484.333 2766.33 747 3093 1009.67 3420.33 1355.33 3584 1784 3584 2042.67 3584 2264.67 3533 2450 3431 2635.33 3329 2787.33 3175 2906 2969L2906 3500 3481 3500 3481 434Z" id="DejaVuSans-67" transform="scale(0.015625 0.015625)"/></defs><use width="100%" height="100%" xlink:href="#DejaVuSans-49"></use><use x="29.4922" width="100%" height="100%" xlink:href="#DejaVuSans-56"></use><use x="97.9004" width="100%" height="100%" xlink:href="#DejaVuSans-4c"></use><use x="153.613" width="100%" height="100%" xlink:href="#DejaVuSans-50"></use><use x="211.666" width="100%" height="100%" xlink:href="#DejaVuSans-2d"></use><use x="238.625" width="100%" height="100%" xlink:href="#DejaVuSans-54"></use><use x="282.709" width="100%" height="100%" xlink:href="#DejaVuSans-65"></use><use x="342.482" width="100%" height="100%" xlink:href="#DejaVuSans-78"></use><use x="401.662" width="100%" height="100%" xlink:href="#DejaVuSans-74"></use><use x="440.871" width="100%" height="100%" xlink:href="#DejaVuSans-2d"></use><use x="476.955" width="100%" height="100%" xlink:href="#DejaVuSans-52"></use><use x="541.938" width="100%" height="100%" xlink:href="#DejaVuSans-65"></use><use x="603.461" width="100%" height="100%" xlink:href="#DejaVuSans-67"></use></g></g><g id="line2d_25"><path d="M99 79.6166 119 79.6166" stroke="#FF7F0E" stroke-width="1.5" stroke-linecap="square" fill="none"/></g><g id="line2d_26"></g><g id="text_21"><g transform="matrix(0.1 0 0 -0.1 127 83.1166)"><use width="100%" height="100%" xlink:href="#DejaVuSans-49"></use><use x="29.4922" width="100%" height="100%" xlink:href="#DejaVuSans-56"></use><use x="97.9004" width="100%" height="100%" xlink:href="#DejaVuSans-4c"></use><use x="153.613" width="100%" height="100%" xlink:href="#DejaVuSans-50"></use><use x="211.666" width="100%" height="100%" xlink:href="#DejaVuSans-2d"></use><use x="238.625" width="100%" height="100%" xlink:href="#DejaVuSans-54"></use><use x="282.709" width="100%" height="100%" xlink:href="#DejaVuSans-65"></use><use x="342.482" width="100%" height="100%" xlink:href="#DejaVuSans-78"></use><use x="401.662" width="100%" height="100%" xlink:href="#DejaVuSans-74"></use></g></g><g id="line2d_27"><path d="M99 94.2947 119 94.2947" stroke="#2CA02C" stroke-width="1.5" stroke-linecap="square" fill="none"/></g><g id="line2d_28"></g><g id="text_22"><g transform="matrix(0.1 0 0 -0.1 127 97.7947)"><use width="100%" height="100%" xlink:href="#DejaVuSans-49"></use><use x="29.4922" width="100%" height="100%" xlink:href="#DejaVuSans-56"></use><use x="97.9004" width="100%" height="100%" xlink:href="#DejaVuSans-4c"></use><use x="153.613" width="100%" height="100%" xlink:href="#DejaVuSans-50"></use><use x="211.666" width="100%" height="100%" xlink:href="#DejaVuSans-2d"></use><use x="241.875" width="100%" height="100%" xlink:href="#DejaVuSans-56"></use><use x="308.033" width="100%" height="100%" xlink:href="#DejaVuSans-69"></use><use x="335.816" width="100%" height="100%" xlink:href="#DejaVuSans-73"></use><use x="387.916" width="100%" height="100%" xlink:href="#DejaVuSans-2d"></use><use x="424" width="100%" height="100%" xlink:href="#DejaVuSans-52"></use><use x="488.982" width="100%" height="100%" xlink:href="#DejaVuSans-65"></use><use x="550.506" width="100%" height="100%" xlink:href="#DejaVuSans-67"></use></g></g><g id="line2d_29"><path d="M99 108.973 119 108.973" stroke="#D62728" stroke-width="1.5" stroke-linecap="square" fill="none"/></g><g id="line2d_30"></g><g id="text_23"><g transform="matrix(0.1 0 0 -0.1 127 112.473)"><use width="100%" height="100%" xlink:href="#DejaVuSans-49"></use><use x="29.4922" width="100%" height="100%" xlink:href="#DejaVuSans-56"></use><use x="97.9004" width="100%" height="100%" xlink:href="#DejaVuSans-4c"></use><use x="153.613" width="100%" height="100%" xlink:href="#DejaVuSans-50"></use><use x="211.666" width="100%" height="100%" xlink:href="#DejaVuSans-2d"></use><use x="241.875" width="100%" height="100%" xlink:href="#DejaVuSans-56"></use><use x="308.033" width="100%" height="100%" xlink:href="#DejaVuSans-69"></use><use x="335.816" width="100%" height="100%" xlink:href="#DejaVuSans-73"></use></g></g><g id="line2d_31"><path d="M99 123.651 119 123.651" stroke="#9467BD" stroke-width="1.5" stroke-linecap="square" fill="none"/></g><g id="line2d_32"></g><g id="text_24"><g transform="matrix(0.1 0 0 -0.1 127 127.151)"><use width="100%" height="100%" xlink:href="#DejaVuSans-4c"></use><use x="55.7129" width="100%" height="100%" xlink:href="#DejaVuSans-50"></use><use x="113.766" width="100%" height="100%" xlink:href="#DejaVuSans-2d"></use><use x="140.725" width="100%" height="100%" xlink:href="#DejaVuSans-54"></use><use x="184.809" width="100%" height="100%" xlink:href="#DejaVuSans-65"></use><use x="244.582" width="100%" height="100%" xlink:href="#DejaVuSans-78"></use><use x="303.762" width="100%" height="100%" xlink:href="#DejaVuSans-74"></use></g></g><g id="line2d_33"><path d="M99 138.329 119 138.329" stroke="#8C564B" stroke-width="1.5" stroke-linecap="square" fill="none"/></g><g id="line2d_34"></g><g id="text_25"><g transform="matrix(0.1 0 0 -0.1 127 141.829)"><use width="100%" height="100%" xlink:href="#DejaVuSans-56"></use><use x="68.4082" width="100%" height="100%" xlink:href="#DejaVuSans-50"></use><use x="128.711" width="100%" height="100%" xlink:href="#DejaVuSans-54"></use><use x="180.67" width="100%" height="100%" xlink:href="#DejaVuSans-2d"></use><use x="210.879" width="100%" height="100%" xlink:href="#DejaVuSans-56"></use><use x="277.037" width="100%" height="100%" xlink:href="#DejaVuSans-69"></use><use x="304.82" width="100%" height="100%" xlink:href="#DejaVuSans-73"></use></g></g></g></g></g></svg>