<svg width="200" height="200" viewBox="0 0 1024 1024" xmlns="http://www.w3.org/2000/svg" xmlns:xlink="http://www.w3.org/1999/xlink" overflow="hidden"><style>
.MsftOfcThm_Text1_Fill_v2 {
 fill:#000000; 
}
</style>
<path d="M385.151 385.662 256.256 385.662 256.256 235.285C256.256 202.549 262.735 172.031 275.692 143.728 288.65 115.426 306.552 90.5335 329.399 69.0509 352.245 47.5684 379.183 30.6893 410.214 18.4136 441.244 6.13786 475.173-6.66667e-07 512-2.4869e-14 544.735-2.4869e-14 576.277 6.13786 606.625 18.4136 636.974 30.6893 663.912 47.5684 687.441 69.0509 710.969 90.5335 729.724 115.426 743.704 143.728 757.685 172.031 764.675 202.549 764.675 235.285L764.675 385.662 640.895 385.662 640.895 263.928C640.895 220.963 628.96 187.716 605.091 164.188 581.221 140.659 548.827 128.895 507.908 128.895 471.081 128.895 441.415 140.659 418.909 164.188 396.404 187.716 385.151 220.963 385.151 263.928L385.151 385.662ZM826.054 447.041C844.468 447.041 860.324 453.69 873.622 466.989 886.921 480.288 893.57 496.144 893.57 514.557L893.57 831.68C893.57 850.094 890.331 867.314 883.852 883.341 877.373 899.367 868.508 913.348 857.255 925.283 846.002 937.217 832.703 946.595 817.359 953.415 802.014 960.234 785.135 963.644 766.721 963.644L250.118 963.644C231.704 963.644 214.996 960.234 199.992 953.415 184.988 946.595 172.201 937.558 161.63 926.306 151.06 915.053 142.876 901.925 137.079 886.921 131.282 871.917 128.384 855.891 128.384 838.841L128.384 514.557C128.384 496.144 134.862 480.288 147.82 466.989 160.778 453.69 176.464 447.041 194.877 447.041L256.256 447.041 385.151 447.041 640.895 447.041 764.675 447.041 826.054 447.041Z" class="MsftOfcThm_Text1_Fill_v2"/></svg>