<svg width="200" height="200" viewBox="0 0 1024 1024" xmlns="http://www.w3.org/2000/svg" xmlns:xlink="http://www.w3.org/1999/xlink" overflow="hidden"><path d="M768.254 0C800.794 0 832.148 6.10129 862.316 18.3039 892.483 30.5065 919.261 47.285 942.649 68.6395 966.038 89.994 984.85 114.908 999.086 143.38 1013.32 171.853 1020.44 202.359 1020.44 234.9L1020.44 385.398 897.398 385.398 897.398 263.372C897.398 220.663 885.365 187.445 861.299 163.718 837.233 139.991 804.862 128.127 764.187 128.127 727.579 128.127 698.089 139.991 675.718 163.718 653.347 187.445 642.161 220.663 642.161 263.372L642.161 387.432 514.034 387.432 514.034 234.9C514.034 202.359 520.474 171.853 533.354 143.38 546.235 114.908 564.03 89.994 586.741 68.6395 609.451 47.285 636.229 30.5065 667.074 18.3039 697.92 6.10129 731.646 6.66667e-07 768.254-3.19744e-14ZM766.22 693.513 766.22 780.965 766.22 828.759C766.22 847.063 763 864.35 756.56 880.62 750.12 896.89 741.307 910.787 730.121 922.312 718.935 933.836 705.716 942.988 690.463 949.768 675.21 956.547 658.431 959.936 640.127 959.936L125.585 959.936C107.281 959.936 90.672 956.716 75.7577 950.276 60.8434 943.836 47.9629 935.023 37.1162 923.837 26.2694 912.651 17.9649 899.601 12.2026 884.687 6.44025 869.773 3.55909 853.842 3.55909 836.894L3.55909 513.525C3.55909 494.544 10.1688 478.612 23.3883 465.732 36.6077 452.851 52.0305 446.411 69.6564 446.411L699.106 446.411C718.088 446.411 734.019 452.851 746.9 465.732 759.78 478.612 766.22 494.544 766.22 513.525L766.22 693.513Z"/></svg>